<svg id="SvgjsSvg1001" width="288" height="288" xmlns="http://www.w3.org/2000/svg" version="1.1" xmlns:xlink="http://www.w3.org/1999/xlink" xmlns:svgjs="http://svgjs.com/svgjs"><rect id="SvgjsRect1012" width="288" height="288" rx="81" ry="81" transform="matrix(1,0,0,1,0,0)" fill="#000000"></rect><defs id="SvgjsDefs1002"></defs><g id="SvgjsG1008" transform="matrix(0.62,0,0,0.62,54.72000081539154,54.719998369216924)"><svg xmlns="http://www.w3.org/2000/svg" fill="none" viewBox="0 0 32 32" width="288" height="288"><path fill="#ffffff" d="M11.6624 25.4182C10.361 25.4182 9.05962 24.9214 8.07173 23.9338C7.11341 22.9758 6.58694 21.6985 6.58694 20.3443C6.58694 18.9901 7.11341 17.7127 8.07173 16.7547L18.2523 6.57741C19.0805 5.7495 19.0805 4.40711 18.2523 3.57921C17.4242 2.75131 16.0813 2.75131 15.2532 3.57921L2.52889 16.2994C1.94917 16.8789 1.01451 16.8789 0.434791 16.2994C-0.14493 15.7198 -0.14493 14.7855 0.434791 14.206L13.1591 1.48579C15.1408 -0.495264 18.3588 -0.495264 20.3405 1.48579C22.3222 3.46685 22.3222 6.68385 20.3405 8.66491L10.1599 18.8422C9.75765 19.2443 9.53877 19.7766 9.53877 20.3443C9.53877 20.912 9.75765 21.4442 10.1599 21.8463C10.9881 22.6742 12.3309 22.6742 13.1591 21.8463C13.7388 21.2668 14.6734 21.2668 15.2532 21.8463C15.8329 22.4259 15.8329 23.3602 15.2532 23.9398C14.2653 24.9273 12.9639 25.4241 11.6624 25.4241V25.4182Z" class="colorfff svgShape"></path><path fill="#ffffff" d="M16.7498 32C16.3712 32 15.9926 31.8581 15.7027 31.5683C15.123 30.9888 15.123 30.0544 15.7027 29.4749L28.427 16.7547C28.8293 16.3526 29.0482 15.8204 29.0482 15.2586C29.0482 14.6968 28.8293 14.1586 28.427 13.7565C27.5989 12.9286 26.256 12.9286 25.4279 13.7565L19.4709 19.7115C18.8912 20.2911 17.9566 20.2911 17.3768 19.7115C16.7971 19.132 16.7971 18.1976 17.3768 17.6181L23.3338 11.6631C25.3155 9.68205 28.5335 9.68205 30.5152 11.6631C31.4735 12.6211 32 13.8984 32 15.2527C32 16.6069 31.4735 17.8842 30.5152 18.8422L17.7909 31.5624C17.5011 31.8522 17.1225 31.9941 16.7439 31.9941L16.7498 32Z" class="colorfff svgShape"></path></svg></g></svg>